<svg height="1390" width="720" xmlns="http://www.w3.org/2000/svg">
<rect height="1390" fill="#555" width="720"></rect>
<text fill="#7f7" font-family="Courier New" font-size="12" xml:space="preserve">
<tspan x="10" y="26">8 megabytes installed</tspan>
<tspan x="10" y="42"></tspan>
<tspan x="10" y="58">node_modules</tspan>
<tspan x="10" y="74">└─┬ grunt-dev-update@2.2.0 </tspan>
<tspan x="10" y="90">  ├── async-each-series@1.1.0 </tspan>
<tspan x="10" y="106">  ├─┬ findup-sync@0.4.3 </tspan>
<tspan x="10" y="122">  │ ├─┬ detect-file@0.1.0 </tspan>
<tspan x="10" y="138">  │ │ └── fs-exists-sync@0.1.0 </tspan>
<tspan x="10" y="154">  │ ├─┬ is-glob@2.0.1 </tspan>
<tspan x="10" y="170">  │ │ └── is-extglob@1.0.0 </tspan>
<tspan x="10" y="186">  │ ├─┬ micromatch@2.3.11 </tspan>
<tspan x="10" y="202">  │ │ ├─┬ arr-diff@2.0.0 </tspan>
<tspan x="10" y="218">  │ │ │ └── arr-flatten@1.0.3 </tspan>
<tspan x="10" y="234">  │ │ ├── array-unique@0.2.1 </tspan>
<tspan x="10" y="250">  │ │ ├─┬ braces@1.8.5 </tspan>
<tspan x="10" y="266">  │ │ │ ├─┬ expand-range@1.8.2 </tspan>
<tspan x="10" y="282">  │ │ │ │ └─┬ fill-range@2.2.3 </tspan>
<tspan x="10" y="298">  │ │ │ │   ├── is-number@2.1.0 </tspan>
<tspan x="10" y="314">  │ │ │ │   ├─┬ isobject@2.1.0 </tspan>
<tspan x="10" y="330">  │ │ │ │   │ └── isarray@1.0.0 </tspan>
<tspan x="10" y="346">  │ │ │ │   ├── randomatic@1.1.6 </tspan>
<tspan x="10" y="362">  │ │ │ │   └── repeat-string@1.6.1 </tspan>
<tspan x="10" y="378">  │ │ │ ├── preserve@0.2.0 </tspan>
<tspan x="10" y="394">  │ │ │ └── repeat-element@1.1.2 </tspan>
<tspan x="10" y="410">  │ │ ├─┬ expand-brackets@0.1.5 </tspan>
<tspan x="10" y="426">  │ │ │ └── is-posix-bracket@0.1.1 </tspan>
<tspan x="10" y="442">  │ │ ├── extglob@0.3.2 </tspan>
<tspan x="10" y="458">  │ │ ├── filename-regex@2.0.0 </tspan>
<tspan x="10" y="474">  │ │ ├─┬ kind-of@3.1.0 </tspan>
<tspan x="10" y="490">  │ │ │ └── is-buffer@1.1.5 </tspan>
<tspan x="10" y="506">  │ │ ├─┬ normalize-path@2.1.1 </tspan>
<tspan x="10" y="522">  │ │ │ └── remove-trailing-separator@1.0.1 </tspan>
<tspan x="10" y="538">  │ │ ├─┬ object.omit@2.0.1 </tspan>
<tspan x="10" y="554">  │ │ │ ├─┬ for-own@0.1.5 </tspan>
<tspan x="10" y="570">  │ │ │ │ └── for-in@1.0.2 </tspan>
<tspan x="10" y="586">  │ │ │ └── is-extendable@0.1.1 </tspan>
<tspan x="10" y="602">  │ │ ├─┬ parse-glob@3.0.4 </tspan>
<tspan x="10" y="618">  │ │ │ ├─┬ glob-base@0.3.0 </tspan>
<tspan x="10" y="634">  │ │ │ │ └── glob-parent@2.0.0 </tspan>
<tspan x="10" y="650">  │ │ │ └── is-dotfile@1.0.2 </tspan>
<tspan x="10" y="666">  │ │ └─┬ regex-cache@0.4.3 </tspan>
<tspan x="10" y="682">  │ │   ├── is-equal-shallow@0.1.3 </tspan>
<tspan x="10" y="698">  │ │   └── is-primitive@2.0.0 </tspan>
<tspan x="10" y="714">  │ └─┬ resolve-dir@0.1.1 </tspan>
<tspan x="10" y="730">  │   ├─┬ expand-tilde@1.2.2 </tspan>
<tspan x="10" y="746">  │   │ └── os-homedir@1.0.2 </tspan>
<tspan x="10" y="762">  │   └─┬ global-modules@0.2.3 </tspan>
<tspan x="10" y="778">  │     ├─┬ global-prefix@0.1.5 </tspan>
<tspan x="10" y="794">  │     │ ├─┬ homedir-polyfill@1.0.1 </tspan>
<tspan x="10" y="810">  │     │ │ └── parse-passwd@1.0.0 </tspan>
<tspan x="10" y="826">  │     │ ├── ini@1.3.4 </tspan>
<tspan x="10" y="842">  │     │ └─┬ which@1.2.14 </tspan>
<tspan x="10" y="858">  │     │   └── isexe@2.0.0 </tspan>
<tspan x="10" y="874">  │     └── is-windows@0.2.0 </tspan>
<tspan x="10" y="890">  ├─┬ inquirer@0.12.0 </tspan>
<tspan x="10" y="906">  │ ├── ansi-escapes@1.4.0 </tspan>
<tspan x="10" y="922">  │ ├── ansi-regex@2.1.1 </tspan>
<tspan x="10" y="938">  │ ├─┬ chalk@1.1.3 </tspan>
<tspan x="10" y="954">  │ │ ├── ansi-styles@2.2.1 </tspan>
<tspan x="10" y="970">  │ │ ├── escape-string-regexp@1.0.5 </tspan>
<tspan x="10" y="986">  │ │ ├── has-ansi@2.0.0 </tspan>
<tspan x="10" y="1002">  │ │ └── supports-color@2.0.0 </tspan>
<tspan x="10" y="1018">  │ ├─┬ cli-cursor@1.0.2 </tspan>
<tspan x="10" y="1034">  │ │ └─┬ restore-cursor@1.0.1 </tspan>
<tspan x="10" y="1050">  │ │   ├── exit-hook@1.1.1 </tspan>
<tspan x="10" y="1066">  │ │   └── onetime@1.1.0 </tspan>
<tspan x="10" y="1082">  │ ├── cli-width@2.1.0 </tspan>
<tspan x="10" y="1098">  │ ├─┬ figures@1.7.0 </tspan>
<tspan x="10" y="1114">  │ │ └── object-assign@4.1.1 </tspan>
<tspan x="10" y="1130">  │ ├─┬ readline2@1.0.1 </tspan>
<tspan x="10" y="1146">  │ │ ├── code-point-at@1.1.0 </tspan>
<tspan x="10" y="1162">  │ │ ├─┬ is-fullwidth-code-point@1.0.0 </tspan>
<tspan x="10" y="1178">  │ │ │ └── number-is-nan@1.0.1 </tspan>
<tspan x="10" y="1194">  │ │ └── mute-stream@0.0.5 </tspan>
<tspan x="10" y="1210">  │ ├─┬ run-async@0.1.0 </tspan>
<tspan x="10" y="1226">  │ │ └─┬ once@1.4.0 </tspan>
<tspan x="10" y="1242">  │ │   └── wrappy@1.0.2 </tspan>
<tspan x="10" y="1258">  │ ├── rx-lite@3.1.2 </tspan>
<tspan x="10" y="1274">  │ ├── string-width@1.0.2 </tspan>
<tspan x="10" y="1290">  │ ├── strip-ansi@3.0.1 </tspan>
<tspan x="10" y="1306">  │ └── through@2.3.8 </tspan>
<tspan x="10" y="1322">  ├── lodash@4.17.4 </tspan>
<tspan x="10" y="1338">  ├─┬ npm-package-arg@4.2.1 </tspan>
<tspan x="10" y="1354">  │ └── hosted-git-info@2.4.2 </tspan>
<tspan x="10" y="1370">  └── semver@5.3.0</tspan>
</text>
</svg>
